<svg width="22" height="17" viewBox="0 0 22 17" fill="none" xmlns="http://www.w3.org/2000/svg">
<path d="M-0.000195295 16.5601V0.744058L5.0638 5.72205e-05V7.00806C5.3998 6.17606 5.9278 5.52806 6.64781 5.06406C7.36781 4.60006 8.23181 4.36806 9.23981 4.36806C10.8078 4.36806 12.0238 4.91206 12.8878 6.00006C13.7518 7.07206 14.1838 8.59206 14.1838 10.5601V16.5601H9.1198V10.2961C9.1198 8.87206 8.5438 8.16006 7.3918 8.16006C6.70381 8.16006 6.14381 8.41606 5.71181 8.92806C5.2798 9.42406 5.0638 10.0961 5.0638 10.9441V16.5601H-0.000195295Z" fill="#08090A"/>
<path d="M18.6849 16.7041C17.8049 16.7041 17.1329 16.4721 16.6689 16.0081C16.2049 15.5281 15.9729 14.9441 15.9729 14.2561C15.9729 13.5521 16.2209 12.9761 16.7169 12.5281C17.2129 12.0641 17.8689 11.8321 18.6849 11.8321C19.5009 11.8321 20.1489 12.0721 20.6289 12.5521C21.1249 13.0321 21.3729 13.6001 21.3729 14.2561C21.3729 14.9921 21.1409 15.5841 20.6769 16.0321C20.2289 16.4801 19.5649 16.7041 18.6849 16.7041Z" fill="#FFB000"/>
</svg>
